<mxfile host="Electron" modified="2022-08-18T10:05:03.184Z" agent="5.0 (X11; Linux x86_64) AppleWebKit/537.36 (KHTML, like Gecko) draw.io/19.0.2 Chrome/102.0.5005.63 Electron/19.0.3 Safari/537.36" etag="jmv3RSR-EU5VXA6kd92S" compressed="false" version="19.0.2" type="device">
  <diagram id="kntlUtY1XAIY34VaBQxC" name="Page-1">
    <mxGraphModel dx="2031" dy="1247" grid="1" gridSize="10" guides="1" tooltips="1" connect="1" arrows="1" fold="1" page="1" pageScale="1" pageWidth="1920" pageHeight="1200" math="0" shadow="0">
      <root>
        <mxCell id="0" />
        <mxCell id="1" parent="0" />
        <mxCell id="ZJk4Gxb49lB03awh4dup-23" value="" style="shape=table;html=1;whiteSpace=wrap;startSize=0;container=1;collapsible=0;childLayout=tableLayout;fontSize=23;" parent="1" vertex="1">
          <mxGeometry x="80" y="160" width="480" height="448" as="geometry" />
        </mxCell>
        <mxCell id="ZJk4Gxb49lB03awh4dup-24" value="" style="shape=tableRow;horizontal=0;startSize=0;swimlaneHead=0;swimlaneBody=0;top=0;left=0;bottom=0;right=0;collapsible=0;dropTarget=0;fillColor=none;points=[[0,0.5],[1,0.5]];portConstraint=eastwest;fontSize=23;fontStyle=1" parent="ZJk4Gxb49lB03awh4dup-23" vertex="1">
          <mxGeometry width="480" height="64" as="geometry" />
        </mxCell>
        <mxCell id="ZJk4Gxb49lB03awh4dup-25" value="&lt;b&gt;Partition&lt;/b&gt;" style="shape=partialRectangle;html=1;whiteSpace=wrap;connectable=0;fillColor=none;top=0;left=0;bottom=0;right=0;overflow=hidden;fontSize=23;" parent="ZJk4Gxb49lB03awh4dup-24" vertex="1">
          <mxGeometry width="160" height="64" as="geometry">
            <mxRectangle width="160" height="64" as="alternateBounds" />
          </mxGeometry>
        </mxCell>
        <mxCell id="ZJk4Gxb49lB03awh4dup-26" value="&lt;b&gt;Min hash&lt;/b&gt;" style="shape=partialRectangle;html=1;whiteSpace=wrap;connectable=0;fillColor=none;top=0;left=0;bottom=0;right=0;overflow=hidden;fontSize=23;" parent="ZJk4Gxb49lB03awh4dup-24" vertex="1">
          <mxGeometry x="160" width="160" height="64" as="geometry">
            <mxRectangle width="160" height="64" as="alternateBounds" />
          </mxGeometry>
        </mxCell>
        <mxCell id="ZJk4Gxb49lB03awh4dup-27" value="&lt;b&gt;Max hash&lt;/b&gt;" style="shape=partialRectangle;html=1;whiteSpace=wrap;connectable=0;fillColor=none;top=0;left=0;bottom=0;right=0;overflow=hidden;fontSize=23;" parent="ZJk4Gxb49lB03awh4dup-24" vertex="1">
          <mxGeometry x="320" width="160" height="64" as="geometry">
            <mxRectangle width="160" height="64" as="alternateBounds" />
          </mxGeometry>
        </mxCell>
        <mxCell id="ZJk4Gxb49lB03awh4dup-28" value="" style="shape=tableRow;horizontal=0;startSize=0;swimlaneHead=0;swimlaneBody=0;top=0;left=0;bottom=0;right=0;collapsible=0;dropTarget=0;fillColor=none;points=[[0,0.5],[1,0.5]];portConstraint=eastwest;fontSize=23;" parent="ZJk4Gxb49lB03awh4dup-23" vertex="1">
          <mxGeometry y="64" width="480" height="64" as="geometry" />
        </mxCell>
        <mxCell id="ZJk4Gxb49lB03awh4dup-29" value="Partition A" style="shape=partialRectangle;html=1;whiteSpace=wrap;connectable=0;fillColor=none;top=0;left=0;bottom=0;right=0;overflow=hidden;fontSize=23;" parent="ZJk4Gxb49lB03awh4dup-28" vertex="1">
          <mxGeometry width="160" height="64" as="geometry">
            <mxRectangle width="160" height="64" as="alternateBounds" />
          </mxGeometry>
        </mxCell>
        <mxCell id="ZJk4Gxb49lB03awh4dup-30" value="0" style="shape=partialRectangle;html=1;whiteSpace=wrap;connectable=0;fillColor=none;top=0;left=0;bottom=0;right=0;overflow=hidden;fontSize=23;" parent="ZJk4Gxb49lB03awh4dup-28" vertex="1">
          <mxGeometry x="160" width="160" height="64" as="geometry">
            <mxRectangle width="160" height="64" as="alternateBounds" />
          </mxGeometry>
        </mxCell>
        <mxCell id="ZJk4Gxb49lB03awh4dup-31" value="&lt;b&gt;49&lt;/b&gt;" style="shape=partialRectangle;html=1;whiteSpace=wrap;connectable=0;fillColor=none;top=0;left=0;bottom=0;right=0;overflow=hidden;fontSize=23;" parent="ZJk4Gxb49lB03awh4dup-28" vertex="1">
          <mxGeometry x="320" width="160" height="64" as="geometry">
            <mxRectangle width="160" height="64" as="alternateBounds" />
          </mxGeometry>
        </mxCell>
        <mxCell id="ZJk4Gxb49lB03awh4dup-32" value="" style="shape=tableRow;horizontal=0;startSize=0;swimlaneHead=0;swimlaneBody=0;top=0;left=0;bottom=0;right=0;collapsible=0;dropTarget=0;fillColor=none;points=[[0,0.5],[1,0.5]];portConstraint=eastwest;fontSize=23;" parent="ZJk4Gxb49lB03awh4dup-23" vertex="1">
          <mxGeometry y="128" width="480" height="64" as="geometry" />
        </mxCell>
        <mxCell id="ZJk4Gxb49lB03awh4dup-33" value="&lt;span style=&quot;color: rgb(0, 0, 0); font-family: Helvetica; font-size: 23px; font-style: normal; font-variant-ligatures: normal; font-variant-caps: normal; letter-spacing: normal; orphans: 2; text-align: center; text-indent: 0px; text-transform: none; widows: 2; word-spacing: 0px; -webkit-text-stroke-width: 0px; background-color: rgb(248, 249, 250); text-decoration-thickness: initial; text-decoration-style: initial; text-decoration-color: initial; float: none; display: inline !important;&quot;&gt;&lt;b&gt;Partition W1&lt;/b&gt;&lt;/span&gt;" style="shape=partialRectangle;html=1;whiteSpace=wrap;connectable=0;fillColor=none;top=0;left=0;bottom=0;right=0;overflow=hidden;fontSize=23;" parent="ZJk4Gxb49lB03awh4dup-32" vertex="1">
          <mxGeometry width="160" height="64" as="geometry">
            <mxRectangle width="160" height="64" as="alternateBounds" />
          </mxGeometry>
        </mxCell>
        <mxCell id="ZJk4Gxb49lB03awh4dup-34" value="&lt;b&gt;50&lt;/b&gt;" style="shape=partialRectangle;html=1;whiteSpace=wrap;connectable=0;fillColor=none;top=0;left=0;bottom=0;right=0;overflow=hidden;fontSize=23;" parent="ZJk4Gxb49lB03awh4dup-32" vertex="1">
          <mxGeometry x="160" width="160" height="64" as="geometry">
            <mxRectangle width="160" height="64" as="alternateBounds" />
          </mxGeometry>
        </mxCell>
        <mxCell id="ZJk4Gxb49lB03awh4dup-35" value="&lt;b style=&quot;&quot;&gt;99&lt;/b&gt;" style="shape=partialRectangle;html=1;whiteSpace=wrap;connectable=0;fillColor=none;top=0;left=0;bottom=0;right=0;overflow=hidden;pointerEvents=1;fontSize=23;" parent="ZJk4Gxb49lB03awh4dup-32" vertex="1">
          <mxGeometry x="320" width="160" height="64" as="geometry">
            <mxRectangle width="160" height="64" as="alternateBounds" />
          </mxGeometry>
        </mxCell>
        <mxCell id="ZJk4Gxb49lB03awh4dup-39" style="shape=tableRow;horizontal=0;startSize=0;swimlaneHead=0;swimlaneBody=0;top=0;left=0;bottom=0;right=0;collapsible=0;dropTarget=0;fillColor=none;points=[[0,0.5],[1,0.5]];portConstraint=eastwest;fontSize=23;" parent="ZJk4Gxb49lB03awh4dup-23" vertex="1">
          <mxGeometry y="192" width="480" height="64" as="geometry" />
        </mxCell>
        <mxCell id="ZJk4Gxb49lB03awh4dup-40" value="Partition B" style="shape=partialRectangle;html=1;whiteSpace=wrap;connectable=0;fillColor=none;top=0;left=0;bottom=0;right=0;overflow=hidden;fontSize=23;" parent="ZJk4Gxb49lB03awh4dup-39" vertex="1">
          <mxGeometry width="160" height="64" as="geometry">
            <mxRectangle width="160" height="64" as="alternateBounds" />
          </mxGeometry>
        </mxCell>
        <mxCell id="ZJk4Gxb49lB03awh4dup-41" value="100" style="shape=partialRectangle;html=1;whiteSpace=wrap;connectable=0;fillColor=none;top=0;left=0;bottom=0;right=0;overflow=hidden;fontSize=23;" parent="ZJk4Gxb49lB03awh4dup-39" vertex="1">
          <mxGeometry x="160" width="160" height="64" as="geometry">
            <mxRectangle width="160" height="64" as="alternateBounds" />
          </mxGeometry>
        </mxCell>
        <mxCell id="ZJk4Gxb49lB03awh4dup-42" value="&lt;b&gt;149&lt;/b&gt;" style="shape=partialRectangle;html=1;whiteSpace=wrap;connectable=0;fillColor=none;top=0;left=0;bottom=0;right=0;overflow=hidden;pointerEvents=1;fontSize=23;" parent="ZJk4Gxb49lB03awh4dup-39" vertex="1">
          <mxGeometry x="320" width="160" height="64" as="geometry">
            <mxRectangle width="160" height="64" as="alternateBounds" />
          </mxGeometry>
        </mxCell>
        <mxCell id="ZJk4Gxb49lB03awh4dup-62" style="shape=tableRow;horizontal=0;startSize=0;swimlaneHead=0;swimlaneBody=0;top=0;left=0;bottom=0;right=0;collapsible=0;dropTarget=0;fillColor=none;points=[[0,0.5],[1,0.5]];portConstraint=eastwest;fontSize=23;" parent="ZJk4Gxb49lB03awh4dup-23" vertex="1">
          <mxGeometry y="256" width="480" height="64" as="geometry" />
        </mxCell>
        <mxCell id="ZJk4Gxb49lB03awh4dup-63" value="&lt;b&gt;Partition W2&lt;/b&gt;" style="shape=partialRectangle;html=1;whiteSpace=wrap;connectable=0;fillColor=none;top=0;left=0;bottom=0;right=0;overflow=hidden;fontSize=23;" parent="ZJk4Gxb49lB03awh4dup-62" vertex="1">
          <mxGeometry width="160" height="64" as="geometry">
            <mxRectangle width="160" height="64" as="alternateBounds" />
          </mxGeometry>
        </mxCell>
        <mxCell id="ZJk4Gxb49lB03awh4dup-64" value="&lt;span style=&quot;color: rgb(0, 0, 0); font-family: Helvetica; font-size: 23px; font-style: normal; font-variant-ligatures: normal; font-variant-caps: normal; letter-spacing: normal; orphans: 2; text-align: center; text-indent: 0px; text-transform: none; widows: 2; word-spacing: 0px; -webkit-text-stroke-width: 0px; background-color: rgb(248, 249, 250); text-decoration-thickness: initial; text-decoration-style: initial; text-decoration-color: initial; float: none; display: inline !important;&quot;&gt;&lt;b&gt;150&lt;/b&gt;&lt;/span&gt;" style="shape=partialRectangle;html=1;whiteSpace=wrap;connectable=0;fillColor=none;top=0;left=0;bottom=0;right=0;overflow=hidden;fontSize=23;" parent="ZJk4Gxb49lB03awh4dup-62" vertex="1">
          <mxGeometry x="160" width="160" height="64" as="geometry">
            <mxRectangle width="160" height="64" as="alternateBounds" />
          </mxGeometry>
        </mxCell>
        <mxCell id="ZJk4Gxb49lB03awh4dup-65" value="&lt;span style=&quot;color: rgb(0, 0, 0); font-family: Helvetica; font-size: 23px; font-style: normal; font-variant-ligatures: normal; font-variant-caps: normal; letter-spacing: normal; orphans: 2; text-align: center; text-indent: 0px; text-transform: none; widows: 2; word-spacing: 0px; -webkit-text-stroke-width: 0px; background-color: rgb(248, 249, 250); text-decoration-thickness: initial; text-decoration-style: initial; text-decoration-color: initial; float: none; display: inline !important;&quot;&gt;&lt;b&gt;199&lt;/b&gt;&lt;/span&gt;" style="shape=partialRectangle;html=1;whiteSpace=wrap;connectable=0;fillColor=none;top=0;left=0;bottom=0;right=0;overflow=hidden;pointerEvents=1;fontSize=23;" parent="ZJk4Gxb49lB03awh4dup-62" vertex="1">
          <mxGeometry x="320" width="160" height="64" as="geometry">
            <mxRectangle width="160" height="64" as="alternateBounds" />
          </mxGeometry>
        </mxCell>
        <mxCell id="6PiqWGi95Sd3r2bfvrK6-36" style="shape=tableRow;horizontal=0;startSize=0;swimlaneHead=0;swimlaneBody=0;top=0;left=0;bottom=0;right=0;collapsible=0;dropTarget=0;fillColor=none;points=[[0,0.5],[1,0.5]];portConstraint=eastwest;fontSize=23;" parent="ZJk4Gxb49lB03awh4dup-23" vertex="1">
          <mxGeometry y="320" width="480" height="64" as="geometry" />
        </mxCell>
        <mxCell id="6PiqWGi95Sd3r2bfvrK6-37" value="&lt;span style=&quot;&quot;&gt;Partition C&lt;/span&gt;" style="shape=partialRectangle;html=1;whiteSpace=wrap;connectable=0;fillColor=none;top=0;left=0;bottom=0;right=0;overflow=hidden;fontSize=23;" parent="6PiqWGi95Sd3r2bfvrK6-36" vertex="1">
          <mxGeometry width="160" height="64" as="geometry">
            <mxRectangle width="160" height="64" as="alternateBounds" />
          </mxGeometry>
        </mxCell>
        <mxCell id="6PiqWGi95Sd3r2bfvrK6-38" value="200" style="shape=partialRectangle;html=1;whiteSpace=wrap;connectable=0;fillColor=none;top=0;left=0;bottom=0;right=0;overflow=hidden;fontSize=23;" parent="6PiqWGi95Sd3r2bfvrK6-36" vertex="1">
          <mxGeometry x="160" width="160" height="64" as="geometry">
            <mxRectangle width="160" height="64" as="alternateBounds" />
          </mxGeometry>
        </mxCell>
        <mxCell id="6PiqWGi95Sd3r2bfvrK6-39" value="&lt;b&gt;249&lt;/b&gt;" style="shape=partialRectangle;html=1;whiteSpace=wrap;connectable=0;fillColor=none;top=0;left=0;bottom=0;right=0;overflow=hidden;pointerEvents=1;fontSize=23;" parent="6PiqWGi95Sd3r2bfvrK6-36" vertex="1">
          <mxGeometry x="320" width="160" height="64" as="geometry">
            <mxRectangle width="160" height="64" as="alternateBounds" />
          </mxGeometry>
        </mxCell>
        <mxCell id="6PiqWGi95Sd3r2bfvrK6-40" style="shape=tableRow;horizontal=0;startSize=0;swimlaneHead=0;swimlaneBody=0;top=0;left=0;bottom=0;right=0;collapsible=0;dropTarget=0;fillColor=none;points=[[0,0.5],[1,0.5]];portConstraint=eastwest;fontSize=23;" parent="ZJk4Gxb49lB03awh4dup-23" vertex="1">
          <mxGeometry y="384" width="480" height="64" as="geometry" />
        </mxCell>
        <mxCell id="6PiqWGi95Sd3r2bfvrK6-41" value="&lt;span style=&quot;&quot;&gt;&lt;b&gt;Partition W3&lt;/b&gt;&lt;/span&gt;" style="shape=partialRectangle;html=1;whiteSpace=wrap;connectable=0;fillColor=none;top=0;left=0;bottom=0;right=0;overflow=hidden;fontSize=23;" parent="6PiqWGi95Sd3r2bfvrK6-40" vertex="1">
          <mxGeometry width="160" height="64" as="geometry">
            <mxRectangle width="160" height="64" as="alternateBounds" />
          </mxGeometry>
        </mxCell>
        <mxCell id="6PiqWGi95Sd3r2bfvrK6-42" value="&lt;b&gt;250&lt;/b&gt;" style="shape=partialRectangle;html=1;whiteSpace=wrap;connectable=0;fillColor=none;top=0;left=0;bottom=0;right=0;overflow=hidden;fontSize=23;" parent="6PiqWGi95Sd3r2bfvrK6-40" vertex="1">
          <mxGeometry x="160" width="160" height="64" as="geometry">
            <mxRectangle width="160" height="64" as="alternateBounds" />
          </mxGeometry>
        </mxCell>
        <mxCell id="6PiqWGi95Sd3r2bfvrK6-43" value="&lt;b&gt;299&lt;/b&gt;" style="shape=partialRectangle;html=1;whiteSpace=wrap;connectable=0;fillColor=none;top=0;left=0;bottom=0;right=0;overflow=hidden;pointerEvents=1;fontSize=23;" parent="6PiqWGi95Sd3r2bfvrK6-40" vertex="1">
          <mxGeometry x="320" width="160" height="64" as="geometry">
            <mxRectangle width="160" height="64" as="alternateBounds" />
          </mxGeometry>
        </mxCell>
        <mxCell id="6PiqWGi95Sd3r2bfvrK6-2" value="&lt;font style=&quot;font-size: 25px;&quot;&gt;Partition A&lt;/font&gt;" style="rounded=0;whiteSpace=wrap;html=1;fillColor=#ffcd28;gradientColor=#ffa500;strokeColor=#d79b00;fontSize=25;" parent="1" vertex="1">
          <mxGeometry x="640" y="200" width="160" height="120" as="geometry" />
        </mxCell>
        <mxCell id="6PiqWGi95Sd3r2bfvrK6-3" value="&lt;font style=&quot;font-size: 25px;&quot;&gt;Partition W1&lt;/font&gt;" style="rounded=0;whiteSpace=wrap;html=1;fillColor=#e6d0de;gradientColor=#d5739d;strokeColor=#996185;fontSize=25;" parent="1" vertex="1">
          <mxGeometry x="840" y="200" width="160" height="120" as="geometry" />
        </mxCell>
        <mxCell id="6PiqWGi95Sd3r2bfvrK6-4" value="&lt;font style=&quot;font-size: 25px;&quot;&gt;Partition B&lt;/font&gt;" style="rounded=0;whiteSpace=wrap;html=1;fillColor=#ffcd28;gradientColor=#ffa500;strokeColor=#d79b00;fontSize=25;" parent="1" vertex="1">
          <mxGeometry x="1040" y="200" width="160" height="120" as="geometry" />
        </mxCell>
        <mxCell id="6PiqWGi95Sd3r2bfvrK6-5" value="&lt;font style=&quot;font-size: 25px;&quot;&gt;Partition W2&lt;/font&gt;" style="rounded=0;whiteSpace=wrap;html=1;fillColor=#e6d0de;gradientColor=#d5739d;strokeColor=#996185;fontSize=25;" parent="1" vertex="1">
          <mxGeometry x="1240" y="200" width="160" height="120" as="geometry" />
        </mxCell>
        <mxCell id="6PiqWGi95Sd3r2bfvrK6-6" value="&lt;font style=&quot;font-size: 25px;&quot;&gt;Partition C&lt;/font&gt;" style="rounded=0;whiteSpace=wrap;html=1;fillColor=#ffcd28;gradientColor=#ffa500;strokeColor=#d79b00;fontSize=25;" parent="1" vertex="1">
          <mxGeometry x="1440" y="200" width="160" height="120" as="geometry" />
        </mxCell>
        <mxCell id="6PiqWGi95Sd3r2bfvrK6-7" value="&lt;font style=&quot;font-size: 25px;&quot;&gt;Partition W3&lt;/font&gt;" style="rounded=0;whiteSpace=wrap;html=1;fillColor=#e6d0de;gradientColor=#d5739d;strokeColor=#996185;fontSize=25;" parent="1" vertex="1">
          <mxGeometry x="1640" y="200" width="160" height="120" as="geometry" />
        </mxCell>
        <mxCell id="6PiqWGi95Sd3r2bfvrK6-33" style="edgeStyle=orthogonalEdgeStyle;rounded=0;orthogonalLoop=1;jettySize=auto;html=1;exitX=0.5;exitY=1;exitDx=0;exitDy=0;entryX=0.5;entryY=1;entryDx=0;entryDy=0;fontSize=25;fontColor=#0066CC;startArrow=none;startFill=0;endArrow=classic;endFill=1;strokeWidth=4;dashed=1;" parent="1" source="6PiqWGi95Sd3r2bfvrK6-8" target="6PiqWGi95Sd3r2bfvrK6-9" edge="1">
          <mxGeometry relative="1" as="geometry">
            <Array as="points">
              <mxPoint x="720" y="480" />
              <mxPoint x="920" y="480" />
            </Array>
          </mxGeometry>
        </mxCell>
        <mxCell id="6PiqWGi95Sd3r2bfvrK6-8" value="" style="rounded=0;whiteSpace=wrap;html=1;fontSize=25;align=right;" parent="1" vertex="1">
          <mxGeometry x="640" y="320" width="160" height="40" as="geometry" />
        </mxCell>
        <mxCell id="6PiqWGi95Sd3r2bfvrK6-9" value="" style="rounded=0;whiteSpace=wrap;html=1;fontSize=25;align=right;" parent="1" vertex="1">
          <mxGeometry x="840" y="320" width="160" height="40" as="geometry" />
        </mxCell>
        <mxCell id="6PiqWGi95Sd3r2bfvrK6-34" style="edgeStyle=orthogonalEdgeStyle;rounded=0;orthogonalLoop=1;jettySize=auto;html=1;exitX=0.5;exitY=1;exitDx=0;exitDy=0;entryX=0.5;entryY=1;entryDx=0;entryDy=0;fontSize=25;fontColor=#0066CC;startArrow=none;startFill=0;endArrow=classic;endFill=1;strokeWidth=4;dashed=1;" parent="1" source="6PiqWGi95Sd3r2bfvrK6-10" target="6PiqWGi95Sd3r2bfvrK6-11" edge="1">
          <mxGeometry relative="1" as="geometry">
            <Array as="points">
              <mxPoint x="1120" y="480" />
              <mxPoint x="1320" y="480" />
            </Array>
          </mxGeometry>
        </mxCell>
        <mxCell id="6PiqWGi95Sd3r2bfvrK6-10" value="" style="rounded=0;whiteSpace=wrap;html=1;fontSize=25;align=right;" parent="1" vertex="1">
          <mxGeometry x="1040" y="320" width="160" height="40" as="geometry" />
        </mxCell>
        <mxCell id="6PiqWGi95Sd3r2bfvrK6-11" value="" style="rounded=0;whiteSpace=wrap;html=1;fontSize=25;align=right;" parent="1" vertex="1">
          <mxGeometry x="1240" y="320" width="160" height="40" as="geometry" />
        </mxCell>
        <mxCell id="6PiqWGi95Sd3r2bfvrK6-35" style="edgeStyle=orthogonalEdgeStyle;rounded=0;orthogonalLoop=1;jettySize=auto;html=1;exitX=0.5;exitY=1;exitDx=0;exitDy=0;entryX=0.5;entryY=1;entryDx=0;entryDy=0;fontSize=25;fontColor=#0066CC;startArrow=none;startFill=0;endArrow=classic;endFill=1;strokeWidth=4;dashed=1;" parent="1" source="6PiqWGi95Sd3r2bfvrK6-12" target="6PiqWGi95Sd3r2bfvrK6-13" edge="1">
          <mxGeometry relative="1" as="geometry">
            <Array as="points">
              <mxPoint x="1520" y="480" />
              <mxPoint x="1720" y="480" />
            </Array>
          </mxGeometry>
        </mxCell>
        <mxCell id="6PiqWGi95Sd3r2bfvrK6-12" value="" style="rounded=0;whiteSpace=wrap;html=1;fontSize=25;align=right;" parent="1" vertex="1">
          <mxGeometry x="1440" y="320" width="160" height="40" as="geometry" />
        </mxCell>
        <mxCell id="6PiqWGi95Sd3r2bfvrK6-13" value="" style="rounded=0;whiteSpace=wrap;html=1;fontSize=25;align=right;" parent="1" vertex="1">
          <mxGeometry x="1640" y="320" width="160" height="40" as="geometry" />
        </mxCell>
        <mxCell id="6PiqWGi95Sd3r2bfvrK6-14" value="" style="rounded=0;whiteSpace=wrap;html=1;fontSize=25;fillColor=#d5e8d4;gradientColor=#97d077;strokeColor=#82b366;align=left;spacingLeft=10;" parent="1" vertex="1">
          <mxGeometry x="640" y="320" width="40" height="40" as="geometry" />
        </mxCell>
        <mxCell id="6PiqWGi95Sd3r2bfvrK6-15" value="" style="rounded=0;whiteSpace=wrap;html=1;fontSize=25;fillColor=#d5e8d4;gradientColor=#97d077;strokeColor=#82b366;align=left;spacingLeft=10;" parent="1" vertex="1">
          <mxGeometry x="840" y="320" width="40" height="40" as="geometry" />
        </mxCell>
        <mxCell id="6PiqWGi95Sd3r2bfvrK6-16" value="" style="rounded=0;whiteSpace=wrap;html=1;fontSize=25;fillColor=#d5e8d4;gradientColor=#97d077;strokeColor=#82b366;align=left;spacingLeft=10;" parent="1" vertex="1">
          <mxGeometry x="1040" y="320" width="40" height="40" as="geometry" />
        </mxCell>
        <mxCell id="6PiqWGi95Sd3r2bfvrK6-17" value="" style="rounded=0;whiteSpace=wrap;html=1;fontSize=25;fillColor=#d5e8d4;gradientColor=#97d077;strokeColor=#82b366;align=left;spacingLeft=10;" parent="1" vertex="1">
          <mxGeometry x="1240" y="320" width="40" height="40" as="geometry" />
        </mxCell>
        <mxCell id="6PiqWGi95Sd3r2bfvrK6-18" value="" style="rounded=0;whiteSpace=wrap;html=1;fontSize=25;fillColor=#d5e8d4;gradientColor=#97d077;strokeColor=#82b366;align=left;spacingLeft=10;" parent="1" vertex="1">
          <mxGeometry x="1440" y="320" width="40" height="40" as="geometry" />
        </mxCell>
        <mxCell id="6PiqWGi95Sd3r2bfvrK6-19" value="" style="rounded=0;whiteSpace=wrap;html=1;fontSize=25;fillColor=#d5e8d4;gradientColor=#97d077;strokeColor=#82b366;align=left;spacingLeft=10;" parent="1" vertex="1">
          <mxGeometry x="1640" y="320" width="40" height="40" as="geometry" />
        </mxCell>
        <mxCell id="6PiqWGi95Sd3r2bfvrK6-20" value="0" style="rounded=0;whiteSpace=wrap;html=1;fontSize=19;strokeColor=none;fillColor=none;align=left;" parent="1" vertex="1">
          <mxGeometry x="640" y="380" width="60" height="30" as="geometry" />
        </mxCell>
        <mxCell id="6PiqWGi95Sd3r2bfvrK6-21" value="49" style="rounded=0;whiteSpace=wrap;html=1;fontSize=19;strokeColor=none;fillColor=none;align=right;" parent="1" vertex="1">
          <mxGeometry x="740" y="380" width="60" height="30" as="geometry" />
        </mxCell>
        <mxCell id="6PiqWGi95Sd3r2bfvrK6-22" value="50" style="rounded=0;whiteSpace=wrap;html=1;fontSize=19;strokeColor=none;fillColor=none;align=left;" parent="1" vertex="1">
          <mxGeometry x="840" y="380" width="60" height="30" as="geometry" />
        </mxCell>
        <mxCell id="6PiqWGi95Sd3r2bfvrK6-23" value="99" style="rounded=0;whiteSpace=wrap;html=1;fontSize=19;strokeColor=none;fillColor=none;align=right;" parent="1" vertex="1">
          <mxGeometry x="940" y="380" width="60" height="30" as="geometry" />
        </mxCell>
        <mxCell id="6PiqWGi95Sd3r2bfvrK6-25" value="100" style="rounded=0;whiteSpace=wrap;html=1;fontSize=19;strokeColor=none;fillColor=none;align=left;" parent="1" vertex="1">
          <mxGeometry x="1040" y="380" width="60" height="30" as="geometry" />
        </mxCell>
        <mxCell id="6PiqWGi95Sd3r2bfvrK6-26" value="149" style="rounded=0;whiteSpace=wrap;html=1;fontSize=19;strokeColor=none;fillColor=none;align=right;" parent="1" vertex="1">
          <mxGeometry x="1140" y="380" width="60" height="30" as="geometry" />
        </mxCell>
        <mxCell id="6PiqWGi95Sd3r2bfvrK6-27" value="150" style="rounded=0;whiteSpace=wrap;html=1;fontSize=19;strokeColor=none;fillColor=none;align=left;" parent="1" vertex="1">
          <mxGeometry x="1240" y="380" width="60" height="30" as="geometry" />
        </mxCell>
        <mxCell id="6PiqWGi95Sd3r2bfvrK6-28" value="199" style="rounded=0;whiteSpace=wrap;html=1;fontSize=19;strokeColor=none;fillColor=none;align=right;" parent="1" vertex="1">
          <mxGeometry x="1340" y="380" width="60" height="30" as="geometry" />
        </mxCell>
        <mxCell id="6PiqWGi95Sd3r2bfvrK6-29" value="200" style="rounded=0;whiteSpace=wrap;html=1;fontSize=19;strokeColor=none;fillColor=none;align=left;" parent="1" vertex="1">
          <mxGeometry x="1440" y="380" width="60" height="30" as="geometry" />
        </mxCell>
        <mxCell id="6PiqWGi95Sd3r2bfvrK6-30" value="249" style="rounded=0;whiteSpace=wrap;html=1;fontSize=19;strokeColor=none;fillColor=none;align=right;" parent="1" vertex="1">
          <mxGeometry x="1540" y="380" width="60" height="30" as="geometry" />
        </mxCell>
        <mxCell id="6PiqWGi95Sd3r2bfvrK6-31" value="250" style="rounded=0;whiteSpace=wrap;html=1;fontSize=19;strokeColor=none;fillColor=none;align=left;" parent="1" vertex="1">
          <mxGeometry x="1640" y="380" width="60" height="30" as="geometry" />
        </mxCell>
        <mxCell id="6PiqWGi95Sd3r2bfvrK6-32" value="299" style="rounded=0;whiteSpace=wrap;html=1;fontSize=19;strokeColor=none;fillColor=none;align=right;" parent="1" vertex="1">
          <mxGeometry x="1740" y="380" width="60" height="30" as="geometry" />
        </mxCell>
      </root>
    </mxGraphModel>
  </diagram>
</mxfile>
